<svg width="565" height="215" viewBox="0 0 565 215" fill="none" xmlns="http://www.w3.org/2000/svg">
<path fill-rule="evenodd" clip-rule="evenodd" d="M62 154.663C62 159.848 62.4464 164.735 63.3392 169.323C62.9267 170.498 62.4684 171.699 61.9643 172.925C60.4018 176.628 58.4486 180.087 56.1048 183.303C53.8587 186.422 51.2219 189.053 48.1945 191.197C45.2647 193.243 42.0908 194.266 38.6728 194.266C33.1062 194.266 29.0534 192.366 26.5143 188.566C23.9752 184.668 22.7056 179.698 22.7056 173.656V156.261C23.3892 155.676 24.61 153.63 26.3678 150.122C28.2233 146.613 30.2742 142.082 32.5203 136.527C34.8641 130.973 37.2567 124.638 39.6982 117.525C42.2373 110.313 44.5323 102.81 46.5831 95.0137C48.7316 87.2177 50.4895 79.3242 51.8567 71.3333C53.2239 63.245 53.9075 55.5464 53.9075 48.2377C53.9075 45.4117 53.8587 42.2933 53.761 38.8825C53.6634 35.3743 53.3704 31.8661 52.8821 28.3579C52.3938 24.7523 51.5637 21.2441 50.3918 17.8333C49.3176 14.4226 47.8039 11.4016 45.8507 8.77049C43.8975 6.13934 41.4072 4.04417 38.3798 2.48497C35.3524 0.828324 31.6414 0 27.2467 0C23.5357 0 20.02 0.974499 16.6996 2.9235C13.3792 4.77505 10.4495 7.40619 7.91034 10.8169C5.46888 14.1302 3.51571 18.1744 2.05083 22.9495C0.68361 27.627 0 32.7432 0 38.2978V174.533C0 180.477 0.732439 185.886 2.19732 190.758C3.75985 195.533 6.006 199.675 8.93576 203.183C11.9632 206.594 15.6742 209.225 20.0688 211.076C24.4635 213.025 29.5417 214 35.3036 214C42.1397 214 48.1945 212.343 53.4681 209.03C58.7416 205.717 63.3316 201.673 67.2379 196.898C68.9303 194.829 70.4944 192.705 71.9302 190.527C73.8149 193.425 75.9056 196.072 78.2022 198.47C83.1651 203.451 88.8091 207.26 95.1343 209.898C101.557 212.633 108.174 214 114.986 214C122.284 214 128.755 213.072 134.399 211.216C140.043 209.36 144.957 206.919 149.142 203.891C151.726 202.021 154.05 200.002 156.114 197.834C157.416 201.213 159.11 204.025 161.195 206.268C163.637 208.991 166.517 210.936 169.838 212.103C173.256 213.368 176.967 214 180.971 214C187.416 214 193.031 212.492 197.816 209.477C202.601 206.462 206.703 202.669 210.121 198.098L210.184 198.015C211.477 201.314 213.147 204.065 215.195 206.268C217.637 208.991 220.517 210.936 223.838 212.103C227.256 213.368 230.967 214 234.971 214C241.416 214 247.031 212.492 251.816 209.477C256.601 206.462 260.703 202.669 264.121 198.098C265.937 195.737 267.57 193.26 269.021 190.666C270.882 193.509 272.942 196.111 275.202 198.47C280.165 203.451 285.809 207.26 292.134 209.898C298.557 212.633 305.174 214 311.986 214C319.284 214 325.755 213.072 331.399 211.216C337.043 209.36 341.957 206.919 346.142 203.891C350.326 200.863 353.829 197.444 356.651 193.635C359.571 189.728 361.955 185.772 363.804 181.767C365.653 177.763 367.015 173.807 367.891 169.9C368.864 165.993 369.545 162.526 369.934 159.498C369.998 158.925 369.938 158.147 370 157.5C370.079 156.678 370.241 156.454 370.361 155.753C371.341 150.61 372.125 145.515 372.712 140.468C373.3 135.422 373.692 130.667 373.888 126.203C374.182 121.738 374.378 118.051 374.476 115.139H400.78C395.881 128.046 392.11 139.886 389.465 150.658C386.917 161.333 385.644 171.475 385.644 181.082C385.644 187.681 386.575 193.165 388.436 197.532C390.395 201.802 392.844 205.247 395.783 207.867C398.82 210.487 402.151 212.331 405.776 213.399C409.499 214.466 413.123 215 416.65 215C423.116 215 428.749 213.496 433.549 210.487C438.156 207.6 442.132 203.997 445.476 199.68C445.97 200.462 446.488 201.222 447.03 201.96C450.04 205.965 453.729 209.14 458.099 211.484C462.565 213.828 467.711 215 473.537 215C479.168 215 484.071 213.779 488.247 211.337C492.519 208.993 496.16 206.112 499.17 202.693C501.403 206.405 504.461 209.384 508.345 211.63C512.229 213.877 516.792 215 522.036 215C528.444 215 534.027 213.486 538.784 210.458C543.639 207.43 547.766 203.621 551.164 199.03C554.562 194.44 557.33 189.409 559.466 183.94C561.699 178.47 563.446 173.244 564.709 168.263C564.903 167.677 565 167.237 565 166.944V166.212C565 164.747 564.66 163.281 563.981 161.816C563.398 160.351 562.573 159.033 561.505 157.86C560.534 156.688 559.417 155.76 558.155 155.077C556.99 154.295 555.825 153.905 554.659 153.905C553.106 153.905 551.649 154.637 550.29 156.102C549.028 157.47 548.057 159.716 547.377 162.842C546.698 166.163 545.824 169.728 544.756 173.537C543.785 177.249 542.474 180.716 540.823 183.94C539.27 187.163 537.377 189.849 535.143 191.998C533.007 194.147 530.434 195.221 527.424 195.221C525.677 195.221 524.123 194.83 522.764 194.049C521.502 193.17 520.482 192.095 519.705 190.826C518.929 189.458 518.346 187.993 517.958 186.43C517.569 184.77 517.375 183.109 517.375 181.449V131.928C517.375 128.314 515.919 125.237 513.006 122.698C510.093 120.06 506.161 118.742 501.209 118.742C499.073 118.742 497.228 119.23 495.674 120.207C494.218 121.086 493.49 122.307 493.49 123.87C493.49 124.358 493.538 124.895 493.635 125.481C493.732 125.97 493.829 126.556 493.927 127.24C494.121 127.923 494.266 128.753 494.364 129.73C494.558 130.707 494.655 131.928 494.655 133.393V179.691C493.004 183.891 490.82 187.553 488.101 190.679C485.382 193.707 481.984 195.221 477.906 195.221C472.663 195.221 468.536 193.121 465.526 188.921C462.516 184.623 461.011 178.519 461.011 170.607C461.011 159.765 462.516 150.437 465.526 142.623C468.536 134.712 472.372 128.216 477.032 123.137C481.79 117.96 487.081 114.151 492.907 111.709C498.733 109.17 504.461 107.9 510.093 107.9C511.646 107.9 513.151 107.998 514.608 108.193C516.064 108.388 517.472 108.486 518.831 108.486C520.288 108.486 521.259 107.998 521.744 107.021C522.327 105.947 522.618 104.14 522.618 101.6C522.618 97.693 521.356 94.6163 518.831 92.3698C516.307 90.1233 513.006 89 508.928 89C499.801 89 490.965 90.8558 482.421 94.5674C473.974 98.2791 466.449 103.651 459.846 110.684C453.244 117.619 447.952 126.067 443.971 136.03C439.99 145.993 438 157.226 438 169.728C438 172.439 438.133 175.079 438.398 177.647C437.61 179.912 436.679 182.076 435.606 184.139C433.941 187.342 431.884 190.011 429.435 192.146C426.985 194.281 424.047 195.348 420.618 195.348C418.56 195.348 416.748 194.911 415.181 194.038C413.711 193.165 412.487 192 411.507 190.544C410.527 188.992 409.792 187.245 409.303 185.304C408.813 183.363 408.568 181.373 408.568 179.335C408.568 174.386 408.911 169.34 409.597 164.196C410.282 158.956 411.115 153.909 412.095 149.057C413.074 144.205 414.152 139.595 415.328 135.228C416.503 130.764 417.581 126.833 418.56 123.437C419.54 120.04 420.373 117.226 421.059 114.994C421.744 112.762 422.087 111.354 422.087 110.772C422.381 109.025 421.94 107.181 420.765 105.241C419.687 103.3 418.315 101.504 416.65 99.8544C414.985 98.1076 413.27 96.7004 411.507 95.6329C409.841 94.5654 408.568 94.0316 407.686 94.0316H389.611C388.828 94.0316 387.848 93.9831 386.672 93.8861C385.497 93.789 384.027 93.692 382.264 93.5949C380.599 93.4008 378.541 93.1582 376.092 92.8671C375.21 89.8587 374.084 87.3354 372.712 85.2975C371.341 83.2595 369.773 81.6097 368.01 80.3481C366.345 79.0865 364.532 78.2131 362.573 77.7279C360.711 77.2426 358.899 77 357.136 77C355.176 77 353.266 77.3397 351.405 78.019C349.543 78.6013 347.927 79.5232 346.555 80.7848C345.184 81.9494 344.057 83.4051 343.176 85.1519C342.392 86.8017 342 88.6456 342 90.6835C342 95.0506 343.225 98.8354 345.674 102.038C348.123 105.143 351.209 107.715 354.932 109.753C354.834 113.538 354.687 117.857 354.491 122.709C354.295 127.464 354.001 132.268 353.609 137.12C353.315 141.876 352.874 146.437 352.286 150.804C351.699 155.074 351.013 158.713 350.229 161.722C350.036 162.431 349.921 163.133 349.883 163.828C349.263 165.911 348.552 167.984 347.747 170.047C345.996 174.54 343.66 178.593 340.741 182.207C337.919 185.821 334.416 188.751 330.232 190.998C326.047 193.147 321.036 194.221 315.197 194.221C311.305 194.221 307.85 193.733 304.833 192.756C301.914 191.779 299.335 190.46 297.097 188.8C294.859 187.14 292.913 185.186 291.259 182.94C289.702 180.595 288.437 178.153 287.463 175.614C294.664 173.465 300.99 170.34 306.439 166.237C311.986 162.037 316.608 157.349 320.306 152.172C324.101 146.898 326.923 141.33 328.772 135.47C330.718 129.609 331.691 123.895 331.691 118.328C331.691 113.835 331.059 109.733 329.794 106.021C328.626 102.309 326.874 99.1349 324.539 96.4977C322.203 93.7628 319.333 91.6628 315.927 90.1977C312.618 88.7326 308.872 88 304.687 88C298.946 88 293.351 89.7093 287.901 93.1279C282.452 96.4488 277.586 101.088 273.305 107.047C269.023 113.005 265.568 120.086 262.941 128.291C260.314 136.398 259 145.188 259 154.663C259 158.424 259.235 162.028 259.705 165.475C259.163 167.78 258.536 170.193 257.822 172.713C256.846 176.409 255.527 179.862 253.867 183.071C252.305 186.281 250.4 188.955 248.154 191.095C246.006 193.235 243.418 194.305 240.391 194.305C237.265 194.305 234.775 193.235 232.92 191.095C231.064 188.955 230.137 185.454 230.137 180.591V85.9082H255.918C265.195 85.811 275.84 85.6164 287.852 85.3247C289.121 85.3247 290.244 84.5952 291.221 83.1363C292.295 81.6774 293.125 79.9753 293.711 78.0301C294.297 75.9877 294.688 73.8966 294.883 71.7569C295.078 69.6171 295.029 67.8178 294.736 66.3589C294.541 64.9 294.004 63.976 293.125 63.587C292.344 63.1979 291.27 63.7329 289.902 65.1918C279.648 65.6781 269.394 66.0185 259.141 66.213C252.824 66.334 253.677 66.1554 246.5 66.3589C246.009 66.3728 239 66.3589 239 66.3589C239 66.3589 237.898 66.3859 236.869 66.3589C235.883 66.333 235.329 66.3589 234.342 66.3589C232.7 66.3589 232.058 66.278 230.137 66.3589V14.1301C230.137 10.5315 228.672 7.46781 225.742 4.93904C222.91 2.31301 219.004 1 214.023 1C212.949 1 211.826 1.09726 210.654 1.29178C209.58 1.38904 208.554 1.58356 207.578 1.87534C206.601 2.16712 205.82 2.50753 205.234 2.89658C204.648 3.28562 204.355 3.77192 204.355 4.35548C204.355 4.84178 204.502 5.32808 204.795 5.81438C205.185 6.20342 205.527 6.78699 205.82 7.56507C206.211 8.24589 206.553 9.21849 206.845 10.4829C207.236 11.7473 207.431 13.4493 207.431 15.589V66.1671C207.08 66.1745 206.728 66.1818 206.376 66.1889C202.691 66.1077 197.033 66.5 194 66.5C190.5 66.5 192 66.5 189 66.5C186.071 66.5 184 66.5 181.5 66.5C179.832 66.5 178.845 66.503 177.228 66.5043C176.864 66.5046 176.5 66.5048 176.137 66.5048V14.1301C176.137 10.5315 174.672 7.46781 171.742 4.93904C168.91 2.31301 165.004 1 160.023 1C158.949 1 157.826 1.09726 156.654 1.29178C155.58 1.38904 154.554 1.58356 153.578 1.87534C152.601 2.16712 151.82 2.50753 151.234 2.89658C150.648 3.28562 150.355 3.77192 150.355 4.35548C150.355 4.84178 150.502 5.32808 150.795 5.81438C151.185 6.20342 151.527 6.78699 151.82 7.56507C152.211 8.24589 152.553 9.21849 152.845 10.4829C153.236 11.7473 153.431 13.4493 153.431 15.589V66.213C149.33 66.1158 145.619 66.0671 142.299 66.0671C138.978 65.9699 136.146 65.824 133.802 65.6295C131.068 65.5322 128.578 65.3863 126.332 65.1918C124.183 65.1918 122.865 66.2616 122.377 68.4014C121.791 70.4438 121.888 72.7295 122.67 75.2582C123.353 77.787 124.623 80.1212 126.478 82.261C128.236 84.3034 130.287 85.3247 132.631 85.3247C134.193 85.4219 136 85.5192 138.051 85.6164C139.808 85.7137 141.957 85.811 144.496 85.9082H153.431V161.891C152.695 164.627 151.8 167.346 150.747 170.047C148.996 174.54 146.66 178.593 143.741 182.207C140.919 185.821 137.416 188.751 133.232 190.998C129.047 193.147 124.036 194.221 118.197 194.221C114.305 194.221 110.85 193.733 107.833 192.756C104.914 191.779 102.335 190.46 100.097 188.8C97.859 187.14 95.9128 185.186 94.2585 182.94C92.7016 180.595 91.4365 178.153 90.4634 175.614C97.6644 173.465 103.99 170.34 109.439 166.237C114.986 162.037 119.608 157.349 123.306 152.172C127.101 146.898 129.923 141.33 131.772 135.47C133.718 129.609 134.691 123.895 134.691 118.328C134.691 113.835 134.059 109.733 132.794 106.021C131.626 102.309 129.874 99.1349 127.539 96.4977C125.203 93.7628 122.333 91.6628 118.927 90.1977C115.618 88.7326 111.872 88 107.687 88C101.946 88 96.3507 89.7093 90.9013 93.1279C85.4519 96.4488 80.5864 101.088 76.3047 107.047C72.023 113.005 68.5685 120.086 65.9411 128.291C63.3137 136.398 62 145.188 62 154.663ZM22.7056 117.086C23.7799 115.04 24.8053 112.311 25.7819 108.9C26.8561 105.392 27.8327 101.543 28.7116 97.3525C29.6882 93.1621 30.5671 88.7769 31.3484 84.1967C32.1297 79.6166 32.8133 75.1339 33.3992 70.7486C33.9852 66.3634 34.4246 62.2705 34.7176 58.4699C35.1082 54.5719 35.3036 51.2587 35.3036 48.5301C35.3036 38.5902 34.5711 31.3301 33.1062 26.75C31.6414 22.0724 29.6882 19.7336 27.2467 19.7336C26.4655 19.7336 25.7819 20.1234 25.1959 20.903C24.61 21.6826 24.1217 22.7058 23.731 23.9727C23.3404 25.1421 23.0474 26.4576 22.8521 27.9194C22.7544 29.2837 22.7056 30.5505 22.7056 31.7199V117.086ZM207.431 158.534V85.9082H176.137V180.591C176.137 185.454 177.064 188.955 178.92 191.095C180.775 193.235 183.265 194.305 186.391 194.305C189.418 194.305 192.006 193.235 194.154 191.095C196.4 188.955 198.305 186.281 199.867 183.071C201.527 179.862 202.846 176.409 203.822 172.713C204.896 168.92 205.775 165.37 206.459 162.063C206.711 160.725 207.035 159.548 207.431 158.534ZM86.5223 153.784C86.5223 154.663 86.571 155.542 86.6683 156.421C86.7656 157.3 86.8143 158.228 86.8143 159.205C90.5121 157.447 93.8693 155.2 96.8859 152.465C99.9026 149.73 102.481 146.605 104.622 143.088C106.763 139.572 108.417 135.763 109.585 131.66C110.753 127.46 111.337 123.114 111.337 118.621C111.337 115.3 110.753 112.712 109.585 110.856C108.515 109 107.006 108.072 105.06 108.072C102.627 108.072 100.438 108.902 98.4915 110.563C96.6426 112.223 94.9884 114.421 93.5287 117.156C92.1664 119.793 90.9986 122.821 90.0255 126.24C89.1497 129.56 88.4199 132.93 87.836 136.349C87.2522 139.767 86.8629 143.04 86.6683 146.165C86.4737 149.193 86.425 151.733 86.5223 153.784ZM283.668 156.421C283.571 155.542 283.522 154.663 283.522 153.784C283.425 151.733 283.474 149.193 283.668 146.165C283.863 143.04 284.252 139.767 284.836 136.349C285.42 132.93 286.15 129.56 287.026 126.24C287.999 122.821 289.166 119.793 290.529 117.156C291.988 114.421 293.643 112.223 295.492 110.563C297.438 108.902 299.627 108.072 302.06 108.072C304.006 108.072 305.515 109 306.585 110.856C307.753 112.712 308.337 115.3 308.337 118.621C308.337 123.114 307.753 127.46 306.585 131.66C305.417 135.763 303.763 139.572 301.622 143.088C299.481 146.605 296.903 149.73 293.886 152.465C290.869 155.2 287.512 157.447 283.814 159.205C283.814 158.228 283.766 157.3 283.668 156.421Z" fill="black"/>
</svg>
